<?xml version="1.0" standalone="no"?><!-- Generator: Gravit.io --><svg xmlns="http://www.w3.org/2000/svg" xmlns:xlink="http://www.w3.org/1999/xlink" style="isolation:isolate" viewBox="50.063 33.507 375.937 115.986" width="375.937" height="115.986"><g><g><path d=" M 71.644 140.98 C 58.606 132.067 50.063 117.075 50.063 100.103 C 50.063 72.73 72.286 50.507 99.659 50.507 C 110.228 50.507 120.03 53.82 128.063 59.489 C 95.218 70.934 71.626 102.193 71.626 138.918 C 71.626 139.607 71.635 140.293 71.644 140.98 Z " fill-rule="evenodd" fill="rgb(253,164,6)" fill-opacity="0.15"/><path d=" M 83.188 146.845 C 68.287 141.61 56.155 129.34 51.762 112.947 C 44.678 86.507 60.392 59.289 86.832 52.204 C 97.041 49.469 107.367 50.132 116.593 53.529 C 87.829 73.085 73.132 109.384 82.637 144.858 C 82.815 145.523 83.001 146.184 83.188 146.845 Z " fill-rule="evenodd" fill="rgb(253,164,6)" fill-opacity="0.15"/><path d=" M 95.836 149.493 C 80.088 148.293 65.194 139.581 56.708 124.883 C 43.022 101.178 51.156 70.82 74.862 57.134 C 84.015 51.849 94.16 49.817 103.951 50.71 C 81.229 77.044 76.427 115.911 94.79 147.716 C 95.134 148.312 95.485 148.903 95.836 149.493 Z " fill-rule="evenodd" fill="rgb(253,164,6)" fill-opacity="0.15"/><path d=" M 108.744 148.639 C 93.222 151.556 76.58 146.996 64.579 134.995 C 45.224 115.64 45.224 84.211 64.579 64.856 C 72.053 57.382 81.327 52.794 91.015 51.122 C 75.883 82.44 81.305 121.225 107.273 147.193 C 107.76 147.68 108.252 148.16 108.744 148.639 Z " fill-rule="evenodd" fill="rgb(253,164,6)" fill-opacity="0.15"/><path d=" M 121.052 144.601 C 106.814 151.436 89.559 151.338 74.862 142.853 C 51.156 129.166 43.022 98.808 56.708 75.103 C 61.993 65.949 69.763 59.118 78.689 54.996 C 72.178 89.163 87.453 125.223 119.258 143.585 C 119.854 143.93 120.453 144.266 121.052 144.601 Z " fill-rule="evenodd" fill="rgb(253,164,6)" fill-opacity="0.15"/><path d=" M 121.052 144.601 C 106.814 151.436 89.559 151.338 74.862 142.853 C 51.156 129.166 43.022 98.808 56.708 75.103 C 61.993 65.949 69.763 59.118 78.689 54.996 C 72.178 89.163 87.453 125.223 119.258 143.585 C 119.854 143.93 120.453 144.266 121.052 144.601 Z " fill-rule="evenodd" fill="rgb(253,164,6)" fill-opacity="0.15"/></g><path d=" M 154.703 90.819 L 149.303 90.819 L 149.303 100.035 L 154.703 100.035 L 154.703 100.035 Q 156.575 100.035 157.223 99.063 L 157.223 99.063 L 157.223 99.063 Q 157.871 98.091 157.871 96.651 L 157.871 96.651 L 157.871 94.203 L 157.871 94.203 Q 157.871 92.763 157.223 91.791 L 157.223 91.791 L 157.223 91.791 Q 156.575 90.819 154.703 90.819 L 154.703 90.819 L 154.703 90.819 Z  M 146.711 129.699 L 146.711 129.699 L 135.623 129.699 L 135.623 129.699 Q 134.255 129.699 133.643 129.087 L 133.643 129.087 L 133.643 129.087 Q 133.031 128.475 133.031 127.107 L 133.031 127.107 L 133.031 80.451 L 133.031 80.451 Q 133.031 79.083 133.643 78.471 L 133.643 78.471 L 133.643 78.471 Q 134.255 77.859 135.623 77.859 L 135.623 77.859 L 159.599 77.859 L 159.599 77.859 Q 167.663 77.859 170.723 81.207 L 170.723 81.207 L 170.723 81.207 Q 173.783 84.555 173.783 89.883 L 173.783 89.883 L 173.783 93.195 L 173.783 93.195 Q 173.783 96.219 172.883 98.343 L 172.883 98.343 L 172.883 98.343 Q 171.983 100.467 169.751 101.403 L 169.751 101.403 L 169.751 101.403 Q 173.639 101.835 176.051 104.571 L 176.051 104.571 L 176.051 104.571 Q 178.463 107.307 178.463 111.843 L 178.463 111.843 L 178.463 127.107 L 178.463 127.107 Q 178.463 128.475 177.851 129.087 L 177.851 129.087 L 177.851 129.087 Q 177.239 129.699 175.871 129.699 L 175.871 129.699 L 164.711 129.699 L 164.711 129.699 Q 163.343 129.699 162.731 129.087 L 162.731 129.087 L 162.731 129.087 Q 162.119 128.475 162.119 127.107 L 162.119 127.107 L 162.119 116.091 L 162.119 116.091 Q 162.119 114.507 161.507 113.751 L 161.507 113.751 L 161.507 113.751 Q 160.895 112.995 159.383 112.995 L 159.383 112.995 L 149.303 112.995 L 149.303 127.107 L 149.303 127.107 Q 149.303 128.475 148.691 129.087 L 148.691 129.087 L 148.691 129.087 Q 148.079 129.699 146.711 129.699 Z  M 225.663 80.451 L 225.663 116.091 L 225.663 116.091 Q 225.663 119.403 224.691 122.103 L 224.691 122.103 L 224.691 122.103 Q 223.719 124.803 221.235 126.711 L 221.235 126.711 L 221.235 126.711 Q 218.751 128.619 214.431 129.699 L 214.431 129.699 L 214.431 129.699 Q 210.111 130.779 203.415 130.779 L 203.415 130.779 L 203.415 130.779 Q 196.719 130.779 192.399 129.699 L 192.399 129.699 L 192.399 129.699 Q 188.079 128.619 185.595 126.711 L 185.595 126.711 L 185.595 126.711 Q 183.111 124.803 182.139 122.103 L 182.139 122.103 L 182.139 122.103 Q 181.167 119.403 181.167 116.091 L 181.167 116.091 L 181.167 80.451 L 181.167 80.451 Q 181.167 79.083 181.779 78.471 L 181.779 78.471 L 181.779 78.471 Q 182.391 77.859 183.759 77.859 L 183.759 77.859 L 195.063 77.859 L 195.063 77.859 Q 196.431 77.859 197.043 78.471 L 197.043 78.471 L 197.043 78.471 Q 197.655 79.083 197.655 80.451 L 197.655 80.451 L 197.655 113.283 L 197.655 113.283 Q 197.655 114.723 198.735 115.695 L 198.735 115.695 L 198.735 115.695 Q 199.815 116.667 203.559 116.667 L 203.559 116.667 L 203.559 116.667 Q 207.375 116.667 208.455 115.695 L 208.455 115.695 L 208.455 115.695 Q 209.535 114.723 209.535 113.283 L 209.535 113.283 L 209.535 80.451 L 209.535 80.451 Q 209.535 79.083 210.147 78.471 L 210.147 78.471 L 210.147 78.471 Q 210.759 77.859 212.127 77.859 L 212.127 77.859 L 223.071 77.859 L 223.071 77.859 Q 224.439 77.859 225.051 78.471 L 225.051 78.471 L 225.051 78.471 Q 225.663 79.083 225.663 80.451 L 225.663 80.451 L 225.663 80.451 Z  M 251.911 90.819 L 246.511 90.819 L 246.511 100.035 L 251.911 100.035 L 251.911 100.035 Q 253.783 100.035 254.431 99.063 L 254.431 99.063 L 254.431 99.063 Q 255.079 98.091 255.079 96.651 L 255.079 96.651 L 255.079 94.203 L 255.079 94.203 Q 255.079 92.763 254.431 91.791 L 254.431 91.791 L 254.431 91.791 Q 253.783 90.819 251.911 90.819 L 251.911 90.819 L 251.911 90.819 Z  M 243.919 129.699 L 243.919 129.699 L 232.831 129.699 L 232.831 129.699 Q 231.463 129.699 230.851 129.087 L 230.851 129.087 L 230.851 129.087 Q 230.239 128.475 230.239 127.107 L 230.239 127.107 L 230.239 80.451 L 230.239 80.451 Q 230.239 79.083 230.851 78.471 L 230.851 78.471 L 230.851 78.471 Q 231.463 77.859 232.831 77.859 L 232.831 77.859 L 256.807 77.859 L 256.807 77.859 Q 264.871 77.859 267.931 81.207 L 267.931 81.207 L 267.931 81.207 Q 270.991 84.555 270.991 89.883 L 270.991 89.883 L 270.991 93.195 L 270.991 93.195 Q 270.991 96.219 270.091 98.343 L 270.091 98.343 L 270.091 98.343 Q 269.191 100.467 266.959 101.403 L 266.959 101.403 L 266.959 101.403 Q 270.847 101.835 273.259 104.571 L 273.259 104.571 L 273.259 104.571 Q 275.671 107.307 275.671 111.843 L 275.671 111.843 L 275.671 127.107 L 275.671 127.107 Q 275.671 128.475 275.059 129.087 L 275.059 129.087 L 275.059 129.087 Q 274.447 129.699 273.079 129.699 L 273.079 129.699 L 261.919 129.699 L 261.919 129.699 Q 260.551 129.699 259.939 129.087 L 259.939 129.087 L 259.939 129.087 Q 259.327 128.475 259.327 127.107 L 259.327 127.107 L 259.327 116.091 L 259.327 116.091 Q 259.327 114.507 258.715 113.751 L 258.715 113.751 L 258.715 113.751 Q 258.103 112.995 256.591 112.995 L 256.591 112.995 L 246.511 112.995 L 246.511 127.107 L 246.511 127.107 Q 246.511 128.475 245.899 129.087 L 245.899 129.087 L 245.899 129.087 Q 245.287 129.699 243.919 129.699 Z  M 322.871 80.451 L 322.871 116.091 L 322.871 116.091 Q 322.871 119.403 321.899 122.103 L 321.899 122.103 L 321.899 122.103 Q 320.927 124.803 318.443 126.711 L 318.443 126.711 L 318.443 126.711 Q 315.959 128.619 311.639 129.699 L 311.639 129.699 L 311.639 129.699 Q 307.319 130.779 300.623 130.779 L 300.623 130.779 L 300.623 130.779 Q 293.927 130.779 289.607 129.699 L 289.607 129.699 L 289.607 129.699 Q 285.287 128.619 282.803 126.711 L 282.803 126.711 L 282.803 126.711 Q 280.319 124.803 279.347 122.103 L 279.347 122.103 L 279.347 122.103 Q 278.375 119.403 278.375 116.091 L 278.375 116.091 L 278.375 80.451 L 278.375 80.451 Q 278.375 79.083 278.987 78.471 L 278.987 78.471 L 278.987 78.471 Q 279.599 77.859 280.967 77.859 L 280.967 77.859 L 292.271 77.859 L 292.271 77.859 Q 293.639 77.859 294.251 78.471 L 294.251 78.471 L 294.251 78.471 Q 294.863 79.083 294.863 80.451 L 294.863 80.451 L 294.863 113.283 L 294.863 113.283 Q 294.863 114.723 295.943 115.695 L 295.943 115.695 L 295.943 115.695 Q 297.023 116.667 300.767 116.667 L 300.767 116.667 L 300.767 116.667 Q 304.583 116.667 305.663 115.695 L 305.663 115.695 L 305.663 115.695 Q 306.743 114.723 306.743 113.283 L 306.743 113.283 L 306.743 80.451 L 306.743 80.451 Q 306.743 79.083 307.355 78.471 L 307.355 78.471 L 307.355 78.471 Q 307.967 77.859 309.335 77.859 L 309.335 77.859 L 320.279 77.859 L 320.279 77.859 Q 321.647 77.859 322.259 78.471 L 322.259 78.471 L 322.259 78.471 Q 322.871 79.083 322.871 80.451 L 322.871 80.451 L 322.871 80.451 Z  M 341.199 129.699 L 341.199 129.699 L 330.039 129.699 L 330.039 129.699 Q 328.671 129.699 328.059 129.087 L 328.059 129.087 L 328.059 129.087 Q 327.447 128.475 327.447 127.107 L 327.447 127.107 L 327.447 80.451 L 327.447 80.451 Q 327.447 79.083 328.059 78.471 L 328.059 78.471 L 328.059 78.471 Q 328.671 77.859 330.039 77.859 L 330.039 77.859 L 341.199 77.859 L 341.199 77.859 Q 342.567 77.859 343.179 78.471 L 343.179 78.471 L 343.179 78.471 Q 343.791 79.083 343.791 80.451 L 343.791 80.451 L 343.791 97.011 L 346.671 97.011 L 354.087 80.235 L 354.087 80.235 Q 354.591 78.939 355.455 78.399 L 355.455 78.399 L 355.455 78.399 Q 356.319 77.859 357.687 77.859 L 357.687 77.859 L 368.775 77.859 L 368.775 77.859 Q 369.999 77.859 370.431 78.471 L 370.431 78.471 L 370.431 78.471 Q 370.863 79.083 370.359 80.235 L 370.359 80.235 L 363.015 97.011 L 363.015 97.011 Q 367.047 97.227 369.459 99.855 L 369.459 99.855 L 369.459 99.855 Q 371.871 102.483 371.871 106.803 L 371.871 106.803 L 371.871 127.107 L 371.871 127.107 Q 371.871 128.475 371.259 129.087 L 371.259 129.087 L 371.259 129.087 Q 370.647 129.699 369.279 129.699 L 369.279 129.699 L 358.191 129.699 L 358.191 129.699 Q 356.823 129.699 356.211 129.087 L 356.211 129.087 L 356.211 129.087 Q 355.599 128.475 355.599 127.107 L 355.599 127.107 L 355.599 113.067 L 355.599 113.067 Q 355.599 111.915 355.023 111.267 L 355.023 111.267 L 355.023 111.267 Q 354.447 110.619 353.295 110.619 L 353.295 110.619 L 343.791 110.619 L 343.791 127.107 L 343.791 127.107 Q 343.791 128.475 343.179 129.087 L 343.179 129.087 L 343.179 129.087 Q 342.567 129.699 341.199 129.699 Z  M 420.295 80.451 L 420.295 116.091 L 420.295 116.091 Q 420.295 119.403 419.323 122.103 L 419.323 122.103 L 419.323 122.103 Q 418.351 124.803 415.867 126.711 L 415.867 126.711 L 415.867 126.711 Q 413.383 128.619 409.063 129.699 L 409.063 129.699 L 409.063 129.699 Q 404.743 130.779 398.047 130.779 L 398.047 130.779 L 398.047 130.779 Q 391.351 130.779 387.031 129.699 L 387.031 129.699 L 387.031 129.699 Q 382.711 128.619 380.227 126.711 L 380.227 126.711 L 380.227 126.711 Q 377.743 124.803 376.771 122.103 L 376.771 122.103 L 376.771 122.103 Q 375.799 119.403 375.799 116.091 L 375.799 116.091 L 375.799 80.451 L 375.799 80.451 Q 375.799 79.083 376.411 78.471 L 376.411 78.471 L 376.411 78.471 Q 377.023 77.859 378.391 77.859 L 378.391 77.859 L 389.695 77.859 L 389.695 77.859 Q 391.063 77.859 391.675 78.471 L 391.675 78.471 L 391.675 78.471 Q 392.287 79.083 392.287 80.451 L 392.287 80.451 L 392.287 113.283 L 392.287 113.283 Q 392.287 114.723 393.367 115.695 L 393.367 115.695 L 393.367 115.695 Q 394.447 116.667 398.191 116.667 L 398.191 116.667 L 398.191 116.667 Q 402.007 116.667 403.087 115.695 L 403.087 115.695 L 403.087 115.695 Q 404.167 114.723 404.167 113.283 L 404.167 113.283 L 404.167 80.451 L 404.167 80.451 Q 404.167 79.083 404.779 78.471 L 404.779 78.471 L 404.779 78.471 Q 405.391 77.859 406.759 77.859 L 406.759 77.859 L 417.703 77.859 L 417.703 77.859 Q 419.071 77.859 419.683 78.471 L 419.683 78.471 L 419.683 78.471 Q 420.295 79.083 420.295 80.451 L 420.295 80.451 L 420.295 80.451 Z " fill-rule="evenodd" fill="rgb(56,239,193)"/></g></svg>