<?xml version="1.0" standalone="no"?><!-- Generator: Gravit.io --><svg xmlns="http://www.w3.org/2000/svg" xmlns:xlink="http://www.w3.org/1999/xlink" style="isolation:isolate" viewBox="0 0 500 200" width="500" height="200"><defs><clipPath id="_clipPath_MMxhXCcOnPq9DBJigcworlEGVjxSFppa"><rect width="500" height="200"/></clipPath></defs><g clip-path="url(#_clipPath_MMxhXCcOnPq9DBJigcworlEGVjxSFppa)"><path d=" M 194.6 99.326 L 189.2 99.326 L 189.2 108.542 L 194.6 108.542 L 194.6 108.542 Q 196.472 108.542 197.12 107.57 L 197.12 107.57 L 197.12 107.57 Q 197.768 106.598 197.768 105.158 L 197.768 105.158 L 197.768 102.71 L 197.768 102.71 Q 197.768 101.27 197.12 100.298 L 197.12 100.298 L 197.12 100.298 Q 196.472 99.326 194.6 99.326 L 194.6 99.326 L 194.6 99.326 Z  M 186.608 138.206 L 186.608 138.206 L 175.52 138.206 L 175.52 138.206 Q 174.152 138.206 173.54 137.594 L 173.54 137.594 L 173.54 137.594 Q 172.928 136.982 172.928 135.614 L 172.928 135.614 L 172.928 88.958 L 172.928 88.958 Q 172.928 87.59 173.54 86.978 L 173.54 86.978 L 173.54 86.978 Q 174.152 86.366 175.52 86.366 L 175.52 86.366 L 199.496 86.366 L 199.496 86.366 Q 207.56 86.366 210.62 89.714 L 210.62 89.714 L 210.62 89.714 Q 213.68 93.062 213.68 98.39 L 213.68 98.39 L 213.68 101.702 L 213.68 101.702 Q 213.68 104.726 212.78 106.85 L 212.78 106.85 L 212.78 106.85 Q 211.88 108.974 209.648 109.91 L 209.648 109.91 L 209.648 109.91 Q 213.536 110.342 215.948 113.078 L 215.948 113.078 L 215.948 113.078 Q 218.36 115.814 218.36 120.35 L 218.36 120.35 L 218.36 135.614 L 218.36 135.614 Q 218.36 136.982 217.748 137.594 L 217.748 137.594 L 217.748 137.594 Q 217.136 138.206 215.768 138.206 L 215.768 138.206 L 204.608 138.206 L 204.608 138.206 Q 203.24 138.206 202.628 137.594 L 202.628 137.594 L 202.628 137.594 Q 202.016 136.982 202.016 135.614 L 202.016 135.614 L 202.016 124.598 L 202.016 124.598 Q 202.016 123.014 201.404 122.258 L 201.404 122.258 L 201.404 122.258 Q 200.792 121.502 199.28 121.502 L 199.28 121.502 L 189.2 121.502 L 189.2 135.614 L 189.2 135.614 Q 189.2 136.982 188.588 137.594 L 188.588 137.594 L 188.588 137.594 Q 187.976 138.206 186.608 138.206 Z  M 265.56 88.958 L 265.56 124.598 L 265.56 124.598 Q 265.56 127.91 264.588 130.61 L 264.588 130.61 L 264.588 130.61 Q 263.616 133.31 261.132 135.218 L 261.132 135.218 L 261.132 135.218 Q 258.648 137.126 254.328 138.206 L 254.328 138.206 L 254.328 138.206 Q 250.008 139.286 243.312 139.286 L 243.312 139.286 L 243.312 139.286 Q 236.616 139.286 232.296 138.206 L 232.296 138.206 L 232.296 138.206 Q 227.976 137.126 225.492 135.218 L 225.492 135.218 L 225.492 135.218 Q 223.008 133.31 222.036 130.61 L 222.036 130.61 L 222.036 130.61 Q 221.064 127.91 221.064 124.598 L 221.064 124.598 L 221.064 88.958 L 221.064 88.958 Q 221.064 87.59 221.676 86.978 L 221.676 86.978 L 221.676 86.978 Q 222.288 86.366 223.656 86.366 L 223.656 86.366 L 234.96 86.366 L 234.96 86.366 Q 236.328 86.366 236.94 86.978 L 236.94 86.978 L 236.94 86.978 Q 237.552 87.59 237.552 88.958 L 237.552 88.958 L 237.552 121.79 L 237.552 121.79 Q 237.552 123.23 238.632 124.202 L 238.632 124.202 L 238.632 124.202 Q 239.712 125.174 243.456 125.174 L 243.456 125.174 L 243.456 125.174 Q 247.272 125.174 248.352 124.202 L 248.352 124.202 L 248.352 124.202 Q 249.432 123.23 249.432 121.79 L 249.432 121.79 L 249.432 88.958 L 249.432 88.958 Q 249.432 87.59 250.044 86.978 L 250.044 86.978 L 250.044 86.978 Q 250.656 86.366 252.024 86.366 L 252.024 86.366 L 262.968 86.366 L 262.968 86.366 Q 264.336 86.366 264.948 86.978 L 264.948 86.978 L 264.948 86.978 Q 265.56 87.59 265.56 88.958 L 265.56 88.958 L 265.56 88.958 Z  M 291.808 99.326 L 286.408 99.326 L 286.408 108.542 L 291.808 108.542 L 291.808 108.542 Q 293.68 108.542 294.328 107.57 L 294.328 107.57 L 294.328 107.57 Q 294.976 106.598 294.976 105.158 L 294.976 105.158 L 294.976 102.71 L 294.976 102.71 Q 294.976 101.27 294.328 100.298 L 294.328 100.298 L 294.328 100.298 Q 293.68 99.326 291.808 99.326 L 291.808 99.326 L 291.808 99.326 Z  M 283.816 138.206 L 283.816 138.206 L 272.728 138.206 L 272.728 138.206 Q 271.36 138.206 270.748 137.594 L 270.748 137.594 L 270.748 137.594 Q 270.136 136.982 270.136 135.614 L 270.136 135.614 L 270.136 88.958 L 270.136 88.958 Q 270.136 87.59 270.748 86.978 L 270.748 86.978 L 270.748 86.978 Q 271.36 86.366 272.728 86.366 L 272.728 86.366 L 296.704 86.366 L 296.704 86.366 Q 304.768 86.366 307.828 89.714 L 307.828 89.714 L 307.828 89.714 Q 310.888 93.062 310.888 98.39 L 310.888 98.39 L 310.888 101.702 L 310.888 101.702 Q 310.888 104.726 309.988 106.85 L 309.988 106.85 L 309.988 106.85 Q 309.088 108.974 306.856 109.91 L 306.856 109.91 L 306.856 109.91 Q 310.744 110.342 313.156 113.078 L 313.156 113.078 L 313.156 113.078 Q 315.568 115.814 315.568 120.35 L 315.568 120.35 L 315.568 135.614 L 315.568 135.614 Q 315.568 136.982 314.956 137.594 L 314.956 137.594 L 314.956 137.594 Q 314.344 138.206 312.976 138.206 L 312.976 138.206 L 301.816 138.206 L 301.816 138.206 Q 300.448 138.206 299.836 137.594 L 299.836 137.594 L 299.836 137.594 Q 299.224 136.982 299.224 135.614 L 299.224 135.614 L 299.224 124.598 L 299.224 124.598 Q 299.224 123.014 298.612 122.258 L 298.612 122.258 L 298.612 122.258 Q 298 121.502 296.488 121.502 L 296.488 121.502 L 286.408 121.502 L 286.408 135.614 L 286.408 135.614 Q 286.408 136.982 285.796 137.594 L 285.796 137.594 L 285.796 137.594 Q 285.184 138.206 283.816 138.206 Z  M 362.768 88.958 L 362.768 124.598 L 362.768 124.598 Q 362.768 127.91 361.796 130.61 L 361.796 130.61 L 361.796 130.61 Q 360.824 133.31 358.34 135.218 L 358.34 135.218 L 358.34 135.218 Q 355.856 137.126 351.536 138.206 L 351.536 138.206 L 351.536 138.206 Q 347.216 139.286 340.52 139.286 L 340.52 139.286 L 340.52 139.286 Q 333.824 139.286 329.504 138.206 L 329.504 138.206 L 329.504 138.206 Q 325.184 137.126 322.7 135.218 L 322.7 135.218 L 322.7 135.218 Q 320.216 133.31 319.244 130.61 L 319.244 130.61 L 319.244 130.61 Q 318.272 127.91 318.272 124.598 L 318.272 124.598 L 318.272 88.958 L 318.272 88.958 Q 318.272 87.59 318.884 86.978 L 318.884 86.978 L 318.884 86.978 Q 319.496 86.366 320.864 86.366 L 320.864 86.366 L 332.168 86.366 L 332.168 86.366 Q 333.536 86.366 334.148 86.978 L 334.148 86.978 L 334.148 86.978 Q 334.76 87.59 334.76 88.958 L 334.76 88.958 L 334.76 121.79 L 334.76 121.79 Q 334.76 123.23 335.84 124.202 L 335.84 124.202 L 335.84 124.202 Q 336.92 125.174 340.664 125.174 L 340.664 125.174 L 340.664 125.174 Q 344.48 125.174 345.56 124.202 L 345.56 124.202 L 345.56 124.202 Q 346.64 123.23 346.64 121.79 L 346.64 121.79 L 346.64 88.958 L 346.64 88.958 Q 346.64 87.59 347.252 86.978 L 347.252 86.978 L 347.252 86.978 Q 347.864 86.366 349.232 86.366 L 349.232 86.366 L 360.176 86.366 L 360.176 86.366 Q 361.544 86.366 362.156 86.978 L 362.156 86.978 L 362.156 86.978 Q 362.768 87.59 362.768 88.958 L 362.768 88.958 L 362.768 88.958 Z  M 381.096 138.206 L 381.096 138.206 L 369.936 138.206 L 369.936 138.206 Q 368.568 138.206 367.956 137.594 L 367.956 137.594 L 367.956 137.594 Q 367.344 136.982 367.344 135.614 L 367.344 135.614 L 367.344 88.958 L 367.344 88.958 Q 367.344 87.59 367.956 86.978 L 367.956 86.978 L 367.956 86.978 Q 368.568 86.366 369.936 86.366 L 369.936 86.366 L 381.096 86.366 L 381.096 86.366 Q 382.464 86.366 383.076 86.978 L 383.076 86.978 L 383.076 86.978 Q 383.688 87.59 383.688 88.958 L 383.688 88.958 L 383.688 105.518 L 386.568 105.518 L 393.984 88.742 L 393.984 88.742 Q 394.488 87.446 395.352 86.906 L 395.352 86.906 L 395.352 86.906 Q 396.216 86.366 397.584 86.366 L 397.584 86.366 L 408.672 86.366 L 408.672 86.366 Q 409.896 86.366 410.328 86.978 L 410.328 86.978 L 410.328 86.978 Q 410.76 87.59 410.256 88.742 L 410.256 88.742 L 402.912 105.518 L 402.912 105.518 Q 406.944 105.734 409.356 108.362 L 409.356 108.362 L 409.356 108.362 Q 411.768 110.99 411.768 115.31 L 411.768 115.31 L 411.768 135.614 L 411.768 135.614 Q 411.768 136.982 411.156 137.594 L 411.156 137.594 L 411.156 137.594 Q 410.544 138.206 409.176 138.206 L 409.176 138.206 L 398.088 138.206 L 398.088 138.206 Q 396.72 138.206 396.108 137.594 L 396.108 137.594 L 396.108 137.594 Q 395.496 136.982 395.496 135.614 L 395.496 135.614 L 395.496 121.574 L 395.496 121.574 Q 395.496 120.422 394.92 119.774 L 394.92 119.774 L 394.92 119.774 Q 394.344 119.126 393.192 119.126 L 393.192 119.126 L 383.688 119.126 L 383.688 135.614 L 383.688 135.614 Q 383.688 136.982 383.076 137.594 L 383.076 137.594 L 383.076 137.594 Q 382.464 138.206 381.096 138.206 Z  M 460.192 88.958 L 460.192 124.598 L 460.192 124.598 Q 460.192 127.91 459.22 130.61 L 459.22 130.61 L 459.22 130.61 Q 458.248 133.31 455.764 135.218 L 455.764 135.218 L 455.764 135.218 Q 453.28 137.126 448.96 138.206 L 448.96 138.206 L 448.96 138.206 Q 444.64 139.286 437.944 139.286 L 437.944 139.286 L 437.944 139.286 Q 431.248 139.286 426.928 138.206 L 426.928 138.206 L 426.928 138.206 Q 422.608 137.126 420.124 135.218 L 420.124 135.218 L 420.124 135.218 Q 417.64 133.31 416.668 130.61 L 416.668 130.61 L 416.668 130.61 Q 415.696 127.91 415.696 124.598 L 415.696 124.598 L 415.696 88.958 L 415.696 88.958 Q 415.696 87.59 416.308 86.978 L 416.308 86.978 L 416.308 86.978 Q 416.92 86.366 418.288 86.366 L 418.288 86.366 L 429.592 86.366 L 429.592 86.366 Q 430.96 86.366 431.572 86.978 L 431.572 86.978 L 431.572 86.978 Q 432.184 87.59 432.184 88.958 L 432.184 88.958 L 432.184 121.79 L 432.184 121.79 Q 432.184 123.23 433.264 124.202 L 433.264 124.202 L 433.264 124.202 Q 434.344 125.174 438.088 125.174 L 438.088 125.174 L 438.088 125.174 Q 441.904 125.174 442.984 124.202 L 442.984 124.202 L 442.984 124.202 Q 444.064 123.23 444.064 121.79 L 444.064 121.79 L 444.064 88.958 L 444.064 88.958 Q 444.064 87.59 444.676 86.978 L 444.676 86.978 L 444.676 86.978 Q 445.288 86.366 446.656 86.366 L 446.656 86.366 L 457.6 86.366 L 457.6 86.366 Q 458.968 86.366 459.58 86.978 L 459.58 86.978 L 459.58 86.978 Q 460.192 87.59 460.192 88.958 L 460.192 88.958 L 460.192 88.958 Z " fill-rule="evenodd" fill="rgb(56,239,193)"/><g><path d=" M 43.236 63.928 L 36.842 136.08 L 39.582 142.474 L 57.849 142.474 L 70.635 142.474 L 79.768 52.968 L 50.542 52.968 L 47.802 52.968 L 45.062 55.708 L 43.236 63.928 Z " fill="rgb(255,255,255)" vector-effect="non-scaling-stroke" stroke-width="1" stroke="rgb(0,0,0)" stroke-linejoin="miter" stroke-linecap="square" stroke-miterlimit="3"/><path d=" M 109.908 54.795 L 109.908 66.668 L 92.555 66.668 L 92.555 141.56 L 108.995 141.56 L 108.995 152.52 L 112.648 155.26 L 128.174 155.26 L 128.174 52.968 L 112.648 52.968 L 109.908 54.795 Z " fill="rgb(255,255,255)" vector-effect="non-scaling-stroke" stroke-width="1" stroke="rgb(0,0,0)" stroke-linejoin="miter" stroke-linecap="square" stroke-miterlimit="3"/><path d=" M 154.46 137.57 L 147.498 70.284 C 147.274 68.117 145.448 66.47 143.269 66.47 L 115.524 66.47 C 117.702 66.47 119.528 68.117 119.753 70.284 L 126.715 137.57 C 126.974 140.078 125.007 142.259 122.487 142.259 L 150.231 142.259 C 152.753 142.259 154.72 140.078 154.46 137.57 Z " fill="rgb(56,239,193)"/><path d=" M 84.1 155.585 L 62.852 155.585 C 60.185 155.585 58.024 153.423 58.024 150.755 L 58.024 141.828 L 88.93 141.828 L 88.93 150.755 C 88.93 153.423 86.767 155.585 84.1 155.585 L 84.1 155.585 Z " fill="rgb(255,255,255)"/><path d=" M 110.41 136.286 L 102.18 56.751 C 101.914 54.19 99.757 52.244 97.181 52.244 L 71.278 52.244 C 68.704 52.244 66.546 54.19 66.28 56.751 L 58.051 136.286 C 57.744 139.25 60.069 141.828 63.049 141.828 L 105.411 141.828 C 108.391 141.828 110.716 139.25 110.41 136.286 L 110.41 136.286 Z " fill="rgb(253,186,66)"/><path d=" M 62.852 38.486 L 84.1 38.486 C 86.767 38.486 88.93 40.648 88.93 43.316 L 88.93 52.244 L 58.024 52.244 L 58.024 43.316 C 58.024 40.648 60.185 38.486 62.852 38.486 Z " fill="rgb(255,255,255)"/><path d=" M 136.314 151.361 L 136.314 142.259 L 122.795 142.259 L 122.795 151.361 C 122.795 153.693 124.686 155.585 127.019 155.585 L 132.089 155.585 C 134.422 155.585 136.314 153.693 136.314 151.361 L 136.314 151.361 Z " fill="rgb(182,239,225)"/><path d=" M 132.213 53.144 L 123.928 53.144 C 121.594 53.144 119.702 55.036 119.702 57.368 L 119.702 66.47 L 136.437 66.47 L 136.437 57.368 C 136.438 55.036 134.547 53.144 132.213 53.144 Z " fill="rgb(182,239,225)"/><path d=" M 79.948 128.644 C 79.313 128.644 78.693 128.9 78.241 129.349 C 77.791 129.801 77.533 130.421 77.533 131.059 C 77.533 131.693 77.791 132.316 78.241 132.765 C 78.693 133.215 79.313 133.473 79.948 133.473 C 80.583 133.473 81.205 133.215 81.655 132.765 C 82.107 132.316 82.362 131.693 82.362 131.059 C 82.362 130.421 82.107 129.801 81.655 129.349 C 81.205 128.9 80.583 128.644 79.948 128.644 Z " fill="rgb(0,0,0)"/><path d=" M 156.862 137.405 L 149.746 69.944 C 149.392 66.587 146.579 64.055 143.203 64.055 L 138.342 64.055 L 138.342 57.308 C 138.342 53.681 135.391 50.73 131.763 50.73 L 113.44 50.73 C 109.813 50.73 106.862 53.681 106.862 57.308 L 106.862 64.055 L 105.363 64.055 L 104.582 56.503 C 104.188 52.698 101.007 49.829 97.181 49.829 L 91.344 49.829 L 91.344 43.316 C 91.344 39.322 88.094 36.072 84.1 36.072 L 62.852 36.072 C 58.859 36.072 55.609 39.322 55.609 43.316 L 55.609 49.829 L 49.771 49.829 C 45.946 49.829 42.765 52.698 42.371 56.503 L 34.142 136.037 C 33.925 138.128 34.609 140.224 36.017 141.785 C 37.425 143.347 39.44 144.242 41.542 144.242 L 55.61 144.242 L 55.61 150.756 C 55.61 154.75 58.859 158 62.852 158 L 84.1 158 C 88.095 158 91.344 154.75 91.344 150.756 L 91.344 144.242 L 105.412 144.242 C 105.902 144.242 106.388 144.192 106.862 144.097 L 106.862 151.421 C 106.862 155.048 109.813 158 113.44 158 L 131.763 158 C 135.391 158 138.342 155.048 138.342 151.421 L 138.342 144.674 L 150.319 144.674 C 152.181 144.674 153.963 143.88 155.209 142.496 C 156.454 141.112 157.056 139.256 156.862 137.405 L 156.862 137.405 Z  M 145.466 127.61 L 150.447 122.628 L 151.621 133.765 L 145.466 127.61 Z  M 135.119 117.263 L 148.473 103.91 L 149.795 116.451 L 142.052 124.195 L 135.119 117.263 Z  M 147.821 97.732 L 131.704 113.848 L 124.774 106.916 L 146.498 85.191 L 147.821 97.732 Z  M 144.944 70.45 L 145.847 79.013 L 121.359 103.502 L 114.479 96.622 L 142.148 68.953 C 142.171 68.931 142.191 68.907 142.211 68.884 L 143.203 68.884 C 144.101 68.884 144.849 69.558 144.944 70.45 L 144.944 70.45 Z  M 75.449 99.147 L 101.449 73.147 L 103.058 88.704 L 84.033 107.731 L 75.449 99.147 Z  M 135.389 68.884 L 121.437 82.836 L 107.487 68.884 L 135.389 68.884 Z  M 103.699 94.893 L 105.309 110.45 L 96.031 119.729 L 87.448 111.145 L 103.699 94.893 Z  M 105.949 116.64 L 107.45 131.148 L 99.446 123.144 L 105.949 116.64 Z  M 106.464 74.691 L 118.023 86.25 L 111.065 93.208 L 108.069 90.213 L 106.464 74.691 Z  M 111.69 57.308 C 111.69 56.343 112.476 55.558 113.44 55.558 L 131.763 55.558 C 132.728 55.558 133.513 56.343 133.513 57.308 L 133.513 64.055 L 111.69 64.055 L 111.69 57.308 Z  M 99.778 57 L 100.809 66.958 L 72.035 95.732 L 63.513 87.21 L 95.872 54.851 C 95.934 54.789 95.991 54.724 96.044 54.658 L 97.181 54.658 C 98.524 54.658 99.64 55.664 99.778 57 Z  M 58.024 54.658 L 89.235 54.658 L 72.126 71.767 L 55.018 54.658 L 58.024 54.658 Z  M 60.438 43.316 C 60.438 41.984 61.521 40.901 62.852 40.901 L 84.1 40.901 C 85.431 40.901 86.514 41.984 86.514 43.316 L 86.514 49.829 L 60.438 49.829 L 60.438 43.316 Z  M 48.512 54.982 L 68.712 75.182 L 60.098 83.795 L 45.874 69.572 L 47.175 57 C 47.266 56.119 47.785 55.382 48.512 54.982 Z  M 39.604 138.551 C 39.101 137.995 38.868 137.279 38.945 136.534 L 40.733 119.253 L 60.893 139.413 L 41.542 139.413 C 40.793 139.413 40.105 139.107 39.604 138.551 Z  M 86.514 150.756 C 86.514 152.088 85.431 153.171 84.1 153.171 L 62.852 153.171 C 61.521 153.171 60.438 152.088 60.438 150.756 L 60.438 144.242 L 86.514 144.242 L 86.514 150.756 Z  M 67.722 139.413 L 41.373 113.064 L 42.984 97.507 L 71.938 126.462 C 72.409 126.933 73.028 127.169 73.646 127.169 C 74.263 127.169 74.882 126.933 75.353 126.462 C 76.295 125.518 76.295 123.99 75.353 123.047 L 43.624 91.318 L 45.234 75.761 L 70.326 100.853 C 70.327 100.853 70.327 100.854 70.328 100.854 C 70.328 100.855 70.329 100.855 70.329 100.856 L 82.325 112.851 L 82.325 112.852 C 82.326 112.852 82.326 112.853 82.326 112.853 L 107.637 138.164 C 107.553 138.3 107.46 138.429 107.35 138.551 C 106.849 139.107 106.16 139.413 105.412 139.413 L 67.722 139.413 Z  M 133.513 151.421 C 133.513 152.385 132.728 153.171 131.763 153.171 L 113.44 153.171 C 112.476 153.171 111.69 152.385 111.69 151.421 L 111.69 144.673 L 133.513 144.673 L 133.513 151.421 Z  M 137.008 139.845 L 126.721 129.557 C 125.779 128.616 124.251 128.615 123.306 129.557 C 122.364 130.501 122.364 132.03 123.306 132.972 L 130.179 139.845 L 112.199 139.845 C 112.728 138.662 112.947 137.349 112.811 136.037 L 108.857 97.831 L 119.65 108.623 L 119.651 108.623 C 119.651 108.624 119.651 108.624 119.652 108.624 L 140.342 129.315 C 140.343 129.316 140.343 129.316 140.344 129.316 C 140.344 129.317 140.345 129.317 140.346 129.318 L 150.804 139.776 C 150.659 139.818 150.498 139.845 150.319 139.845 L 137.008 139.845 Z " fill="rgb(0,0,0)"/><path d=" M 118.718 122.552 C 118.083 122.552 117.46 122.811 117.008 123.26 C 116.559 123.711 116.303 124.331 116.303 124.969 C 116.303 125.604 116.559 126.225 117.008 126.676 C 117.46 127.125 118.083 127.384 118.718 127.384 C 119.353 127.384 119.976 127.125 120.425 126.676 C 120.873 126.227 121.132 125.604 121.132 124.969 C 121.132 124.331 120.874 123.711 120.425 123.26 C 119.976 122.811 119.353 122.552 118.718 122.552 Z " fill="rgb(0,0,0)"/></g></g></svg>