<?xml version="1.0" standalone="no"?>
<!DOCTYPE svg PUBLIC "-//W3C//DTD SVG 20010904//EN"
 "http://www.w3.org/TR/2001/REC-SVG-20010904/DTD/svg10.dtd">
<svg version="1.0" xmlns="http://www.w3.org/2000/svg"
 width="992.000000pt" height="992.000000pt" viewBox="0 0 992.000000 992.000000"
 preserveAspectRatio="xMidYMid meet">
<metadata>
Created by potrace 1.11, written by Peter Selinger 2001-2013
</metadata>
<g transform="translate(0.000000,992.000000) scale(0.100000,-0.100000)"
fill="#000000" stroke="none">
<path d="M2357 9844 c-1 -1 -33 -5 -70 -8 -37 -3 -84 -13 -103 -21 -20 -8 -40
-13 -44 -10 -4 3 -18 -3 -31 -13 -13 -10 -41 -27 -62 -37 -38 -20 -150 -122
-175 -161 -44 -68 -84 -169 -96 -244 -3 -14 -5 -156 -5 -317 l-1 -291 -45 1
c-25 1 -47 -2 -49 -8 -3 -6 -5 -6 -5 0 -1 11 -82 12 -100 1 -6 -4 -11 -4 -11
1 0 10 -52 9 -68 -1 -7 -4 -12 -3 -12 3 0 7 -8 7 -25 1 -14 -5 -25 -6 -25 -2
0 4 -27 7 -60 7 -33 0 -60 -2 -60 -5 0 -3 -21 -4 -46 -4 -25 1 -63 -3 -83 -8
-20 -5 -46 -11 -58 -13 -58 -13 -170 -82 -232 -144 -68 -68 -105 -111 -95
-111 3 0 -3 -12 -14 -27 -10 -16 -23 -41 -29 -58 -6 -16 -15 -39 -19 -50 -4
-11 -8 -22 -9 -25 -2 -8 -17 -112 -20 -140 -2 -14 -6 -52 -9 -85 -6 -61 -12
-112 -22 -200 -3 -27 -7 -77 -9 -110 -2 -33 -5 -60 -6 -60 -1 0 -5 -32 -13
-115 -3 -30 -8 -80 -12 -110 -3 -30 -7 -75 -9 -100 -2 -25 -4 -45 -5 -45 -1 0
-3 -22 -6 -50 -2 -27 -6 -70 -9 -95 -7 -65 -14 -126 -21 -200 -3 -36 -8 -78
-9 -95 -12 -107 -16 -146 -20 -190 -2 -27 -7 -72 -11 -100 -3 -27 -8 -66 -9
-85 -4 -43 -15 -153 -20 -200 -2 -19 -7 -62 -10 -95 -4 -33 -8 -76 -10 -95 -2
-19 -7 -64 -11 -100 -3 -36 -8 -68 -11 -72 -2 -5 2 -8 9 -8 8 0 9 -3 3 -8 -12
-8 -11 -5 -20 -102 -3 -41 -8 -86 -10 -100 -2 -14 -7 -52 -10 -85 -3 -33 -8
-80 -10 -105 -3 -25 -8 -70 -11 -100 -3 -30 -7 -73 -9 -95 -3 -22 -7 -62 -9
-90 -3 -27 -8 -77 -12 -110 -3 -33 -7 -76 -9 -95 -2 -19 -4 -35 -5 -35 -1 0
-4 -29 -15 -145 -4 -41 -9 -93 -11 -115 -3 -22 -5 -51 -5 -64 1 -13 -4 -30
-10 -37 -9 -11 -8 -14 0 -14 7 0 10 -4 7 -8 -5 -8 -19 -118 -19 -149 0 -7 -4
-13 -9 -13 -5 0 -4 -8 1 -19 6 -10 8 -20 6 -23 -5 -5 -11 -46 -20 -141 -3 -32
-7 -77 -10 -100 -3 -23 -7 -67 -10 -97 -7 -76 -15 -148 -20 -190 -2 -19 -7
-64 -10 -100 -8 -79 -14 -134 -19 -180 -3 -19 -8 -66 -11 -105 -3 -38 -8 -86
-10 -105 -3 -19 -7 -60 -10 -90 -3 -30 -8 -73 -10 -95 -3 -22 -8 -62 -10 -90
-2 -27 -6 -72 -9 -100 -3 -27 -8 -75 -12 -105 -3 -30 -8 -77 -10 -105 -6 -62
-12 -115 -19 -180 -3 -27 -8 -72 -10 -100 -2 -27 -4 -50 -5 -50 -1 0 -3 -18
-5 -40 -1 -23 -6 -65 -10 -95 -4 -30 -7 -62 -7 -70 0 -8 -5 -53 -10 -100 -5
-47 -11 -105 -13 -130 -3 -25 -8 -72 -11 -105 -4 -33 -7 -112 -8 -175 -1 -112
14 -190 48 -255 6 -11 11 -22 11 -25 1 -9 60 -95 85 -124 50 -57 183 -147 240
-161 3 -1 12 -5 20 -8 8 -4 29 -8 45 -11 17 -2 30 -5 30 -6 0 -8 122 -10 637
-11 l597 -1 4 -312 c4 -317 6 -349 34 -414 9 -20 18 -43 19 -51 1 -7 12 -23
23 -35 12 -12 21 -27 21 -33 0 -16 126 -144 133 -136 4 3 7 2 7 -4 0 -23 162
-94 245 -107 22 -4 450 -7 951 -7 874 0 956 2 1024 29 8 3 17 6 20 7 89 30
190 106 258 192 28 36 94 161 98 188 1 6 5 26 9 45 4 19 8 171 9 337 l1 301
567 0 c311 0 571 3 577 7 6 3 11 2 11 -4 0 -6 9 -8 23 -3 40 13 84 2 71 -19
-3 -6 -6 -145 -5 -310 1 -333 8 -388 62 -490 51 -95 187 -222 250 -234 12 -2
27 -9 35 -16 8 -6 14 -9 14 -5 0 3 11 1 25 -4 14 -5 38 -12 53 -15 34 -7 1598
-7 1632 0 14 2 39 8 55 12 17 4 32 7 35 8 16 2 128 61 141 74 9 9 26 23 38 31
50 34 142 177 155 242 3 13 8 34 12 48 4 14 8 156 10 315 1 160 3 299 3 310 1
20 9 20 514 22 492 1 536 3 589 18 135 39 266 147 319 265 11 25 25 53 31 64
5 10 12 33 16 50 7 39 6 271 -2 311 -4 17 -8 58 -11 90 -2 33 -4 60 -5 60 -3
0 -7 39 -14 120 -3 39 -8 88 -11 110 -4 22 -8 63 -10 90 -2 28 -7 75 -11 105
-4 30 -7 76 -8 102 0 27 -4 48 -7 48 -3 0 -6 17 -7 38 -1 41 -9 137 -12 137
-1 0 -3 20 -5 45 -5 73 -14 165 -16 165 -1 0 -3 18 -5 40 -1 22 -5 60 -8 85
-3 25 -8 74 -11 110 -5 59 -12 105 -15 105 0 0 -3 29 -5 65 -3 36 -7 85 -10
110 -3 25 -8 59 -10 75 -4 33 -16 153 -20 200 -3 31 -13 118 -19 170 -2 17 -7
62 -11 100 -3 39 -8 86 -10 105 -2 19 -7 61 -10 94 -3 32 -8 62 -11 67 -3 5 0
9 7 9 8 0 8 4 1 13 -5 6 -13 48 -16 92 -4 44 -8 91 -11 105 -4 22 -9 77 -20
195 -2 22 -5 58 -8 80 -3 22 -8 69 -12 105 -3 36 -8 83 -11 105 -6 50 -15 140
-19 180 -4 43 -15 153 -21 200 -2 22 -6 60 -9 84 -2 24 -6 62 -9 85 -3 23 -8
73 -12 111 -4 39 -8 81 -10 95 -1 14 -5 52 -8 85 -6 65 -14 138 -22 199 -3 22
-7 64 -9 95 -2 31 -6 67 -9 81 -8 39 -30 263 -30 322 -1 21 -4 38 -7 38 -3 0
-7 24 -9 53 -4 70 -8 122 -10 122 -1 0 -3 16 -5 35 -2 19 -6 60 -9 90 -4 30
-9 78 -12 105 -14 141 -21 197 -24 205 -1 3 -2 9 -1 13 1 4 -4 18 -11 30 -7
12 -13 24 -13 27 -11 63 -111 199 -173 236 -18 10 -32 21 -32 25 0 3 -18 12
-40 19 -22 7 -40 17 -40 22 0 4 -11 8 -25 8 -14 0 -25 4 -25 8 0 5 -6 9 -12
10 -7 0 -38 3 -68 7 -30 4 -146 7 -257 7 -140 1 -203 5 -204 12 0 6 -2 148 -4
316 -2 258 -6 345 -15 345 -1 0 -3 7 -5 16 -6 31 -58 139 -66 139 -5 0 -9 5
-9 11 0 6 -23 35 -52 65 -57 60 -133 108 -218 139 -53 19 -86 20 -856 23 -850
3 -883 1 -981 -44 -121 -56 -210 -145 -265 -264 -24 -51 -29 -67 -43 -140 -5
-23 -8 -293 -4 -315 1 -5 0 -14 -1 -20 -1 -5 -2 -71 -2 -146 l1 -135 -60 -1
c-32 0 -59 2 -60 6 0 3 -2 20 -3 36 -2 17 -6 59 -11 95 -4 36 -9 83 -10 104
-2 22 -7 61 -10 86 -4 26 -8 67 -10 91 -4 57 -15 155 -20 196 -30 212 -154
383 -340 468 -62 28 -190 60 -205 50 -5 -3 -11 -1 -15 4 -3 7 -15 7 -30 1 -16
-6 -27 -6 -31 1 -4 6 -11 6 -20 -2 -8 -6 -14 -8 -14 -3 0 5 -38 9 -85 9 -47 0
-85 -3 -85 -7 0 -4 -11 -3 -24 2 -15 5 -27 5 -35 -3 -6 -6 -11 -7 -11 -2 0 11
-120 12 -137 2 -7 -4 -15 -2 -19 4 -3 6 -7 149 -8 318 -2 306 -2 306 -30 386
-15 44 -30 82 -34 85 -4 3 -14 18 -22 35 -36 73 -158 184 -237 217 -15 6 -31
11 -35 10 -5 -1 -8 2 -8 7 0 8 -25 15 -95 28 -42 7 -60 11 -60 13 0 2 -1746 5
-1748 4z"/>
</g>
</svg>
